<svg xmlns="http://www.w3.org/2000/svg" width="246" height="256" fill="none" viewBox="0 0 246 256"><path fill="#FF5E18" d="m25.348 80.93 160.498-48.749-.084 23.045-160.497 48.75.083-23.045ZM60.802 197.656 221.3 148.907l-.084 23.045-160.497 48.749.083-23.045ZM34.212 110.112l98.081-29.791-.083 23.045-98.082 29.791.084-23.045ZM74.689 129.691 172.77 99.9l-.083 23.045-98.082 29.791.084-23.045ZM54.8 40.112 168.806 5.484l-1.136 23.364L53.664 63.477 54.8 40.112ZM114.354 149.517l98.082-29.792-.083 23.045-98.082 29.792.083-23.045ZM80.138 223.657l117.625-35.728-1.375 23.438-117.626 35.727 1.376-23.437Z"/></svg>