<svg width="246" height="256" viewBox="0 0 246 256" fill="none" xmlns="http://www.w3.org/2000/svg">
<path d="M25.3483 80.9307L185.846 32.1813L185.762 55.2264L25.265 103.976L25.3483 80.9307Z" fill="#FE4F03"/>
<path d="M60.8023 197.656L221.3 148.907L221.216 171.952L60.719 220.701L60.8023 197.656Z" fill="#FE4F03"/>
<path d="M34.2117 110.112L132.293 80.3208L132.21 103.366L34.1284 133.157L34.2117 110.112Z" fill="#FE4F03"/>
<path d="M74.6885 129.691L172.77 99.8999L172.687 122.945L74.6052 152.736L74.6885 129.691Z" fill="#FE4F03"/>
<path d="M78.6382 32.8712L172.754 4.28438L172.933 27.2498L78.8171 55.8366L78.6382 32.8712Z" fill="#FE4F03"/>
<path d="M114.354 149.517L212.436 119.726L212.353 142.771L114.271 172.562L114.354 149.517Z" fill="#FE4F03"/>
<path d="M76.092 224.886L167.748 197.046L168.089 219.962L76.4335 247.802L76.092 224.886Z" fill="#FE4F03"/>
</svg>
